# Blender v2.76 (sub 0) OBJ File: 'Hoe.blend'
# www.blender.org
mtllib Hoe.mtl
o Cylinder
v -0.174584 -3.215184 -0.174584
v -0.137170 -3.215184 -0.205289
v -0.094484 -3.215184 -0.228105
v -0.048168 -3.215184 -0.242155
v 0.000000 -3.215184 -0.246899
v 0.048168 -3.215184 -0.242155
v 0.094484 -3.215184 -0.228105
v 0.137170 -3.215184 -0.205289
v 0.174584 -3.215184 -0.174584
v 0.205289 -3.215184 -0.137170
v 0.228105 -3.215184 -0.094484
v 0.242155 -3.215184 -0.048168
v 0.246899 -3.215184 0.000000
v 0.242155 -3.215184 0.048168
v 0.228105 -3.215184 0.094484
v 0.205289 -3.215184 0.137170
v 0.174584 -3.215184 0.174584
v 0.137170 -3.215184 0.205289
v 0.094484 -3.215184 0.228105
v 0.048167 -3.215184 0.242155
v -0.000000 -3.215184 0.246899
v -0.048168 -3.215184 0.242155
v -0.094484 -3.215184 0.228105
v -0.137170 -3.215184 0.205289
v -0.174584 -3.215184 0.174584
v -0.205289 -3.215184 0.137169
v -0.228105 -3.215184 0.094484
v -0.242155 -3.215184 0.048167
v -0.246899 -3.215184 -0.000000
v -0.242155 -3.215184 -0.048168
v -0.228105 -3.215184 -0.094484
v -0.205289 -3.215184 -0.137170
v -0.174584 4.886401 -0.174584
v -0.137170 4.886401 -0.205289
v -0.094484 4.886401 -0.228105
v -0.048168 4.886401 -0.242155
v 0.000000 4.886401 -0.246899
v 0.048168 4.886401 -0.242155
v 0.094484 4.886401 -0.228105
v 0.137170 4.886401 -0.205289
v 0.174584 4.886401 -0.174584
v 0.205289 4.886401 -0.137170
v 0.228105 4.886401 -0.094484
v 0.242155 4.886401 -0.048168
v 0.246899 4.886401 0.000000
v 0.242155 4.886401 0.048168
v 0.228105 4.886401 0.094484
v 0.205289 4.886401 0.137170
v 0.174584 4.886401 0.174584
v 0.137170 4.886401 0.205289
v 0.094484 4.886401 0.228105
v 0.048167 4.886401 0.242155
v -0.000000 4.886401 0.246899
v -0.048168 4.886401 0.242155
v -0.094484 4.886401 0.228105
v -0.137170 4.886401 0.205289
v -0.174584 4.886401 0.174584
v -0.205289 4.886401 0.137169
v -0.228105 4.886401 0.094484
v -0.242155 4.886401 0.048167
v -0.246899 4.886401 -0.000000
v -0.242155 4.886401 -0.048168
v -0.228105 4.886401 -0.094484
v -0.205289 4.886401 -0.137170
v -0.129794 6.230695 -0.129794
v -0.101978 6.230695 -0.152621
v -0.070244 6.230695 -0.169584
v -0.035810 6.230695 -0.180029
v 0.000000 6.230695 -0.183556
v 0.035810 6.230695 -0.180029
v 0.070244 6.230695 -0.169584
v 0.101978 6.230695 -0.152621
v 0.129794 6.230695 -0.129794
v 0.152621 6.230695 -0.101978
v 0.169584 6.230695 -0.070244
v 0.180029 6.230695 -0.035810
v 0.183556 6.230695 0.000000
v 0.180029 6.230695 0.035810
v 0.169584 6.230695 0.070244
v 0.152621 6.230695 0.101978
v 0.129794 6.230695 0.129794
v 0.101978 6.230695 0.152622
v 0.070244 6.230695 0.169584
v 0.035810 6.230695 0.180029
v -0.000000 6.230695 0.183556
v -0.035810 6.230695 0.180029
v -0.070244 6.230695 0.169584
v -0.101979 6.230695 0.152621
v -0.129794 6.230695 0.129794
v -0.152622 6.230695 0.101978
v -0.169584 6.230695 0.070244
v -0.180029 6.230695 0.035810
v -0.183556 6.230695 -0.000000
v -0.180029 6.230695 -0.035810
v -0.169584 6.230695 -0.070244
v -0.152621 6.230695 -0.101979
v -0.203606 4.886401 -0.203606
v -0.159972 4.886401 -0.239415
v -0.110191 4.886401 -0.266024
v -0.056175 4.886401 -0.282409
v 0.000000 4.886401 -0.287942
v 0.056175 4.886401 -0.282409
v 0.110191 4.886401 -0.266024
v 0.159972 4.886401 -0.239415
v 0.203606 4.886401 -0.203606
v 0.239415 4.886401 -0.159972
v 0.266024 4.886401 -0.110191
v 0.282409 4.886401 -0.056175
v 0.287942 4.886401 0.000000
v 0.282409 4.886401 0.056175
v 0.266024 4.886401 0.110191
v 0.239415 4.886401 0.159972
v 0.203606 4.886401 0.203606
v 0.159972 4.886401 0.239415
v 0.110191 4.886401 0.266024
v 0.056175 4.886401 0.282409
v -0.000000 4.886401 0.287942
v -0.056175 4.886401 0.282409
v -0.110191 4.886401 0.266024
v -0.159972 4.886401 0.239415
v -0.203606 4.886401 0.203606
v -0.239415 4.886401 0.159972
v -0.266024 4.886401 0.110190
v -0.282410 4.886401 0.056174
v -0.287942 4.886401 -0.000000
v -0.282409 4.886401 -0.056175
v -0.266024 4.886401 -0.110191
v -0.239415 4.886401 -0.159972
v -0.159972 6.230695 -0.239415
v -0.203606 6.230695 -0.203606
v -0.110191 6.230695 -0.266024
v -0.056175 6.230695 -0.282409
v 0.000000 6.230695 -0.287942
v 0.056175 6.230695 -0.282409
v 0.110191 6.230695 -0.266024
v 0.159972 6.230695 -0.239415
v 0.203606 6.230695 -0.203606
v 0.239415 6.230695 -0.159972
v 0.266024 6.230695 -0.110191
v 0.282409 6.230695 -0.056175
v 0.287942 6.230695 0.000000
v 0.282409 6.230695 0.056175
v 0.266024 6.230695 0.110191
v 0.239415 6.230695 0.159972
v 0.203606 6.230695 0.203606
v 0.159972 6.230695 0.239415
v 0.110191 6.230695 0.266024
v 0.056175 6.230695 0.282409
v -0.000000 6.230695 0.287942
v -0.056175 6.230695 0.282409
v -0.110191 6.230695 0.266024
v -0.159972 6.230695 0.239415
v -0.203606 6.230695 0.203606
v -0.239415 6.230695 0.159972
v -0.266024 6.230695 0.110190
v -0.282410 6.230695 0.056174
v -0.287942 6.230695 -0.000000
v -0.282409 6.230695 -0.056175
v -0.266024 6.230695 -0.110191
v -0.239415 6.230695 -0.159972
v 0.129794 6.382151 -0.129794
v -0.129794 6.492063 -0.129794
v -0.129794 6.492063 0.129794
v 0.129794 6.382151 0.129794
v 0.129794 6.877431 0.129794
v 0.129794 6.877431 -0.129794
v 0.386501 6.803107 -0.129794
v 0.386501 6.803107 0.129794
v 0.129714 7.400960 0.129794
v 0.129714 7.400960 -0.129794
v 0.386421 7.431651 0.129794
v 0.386421 7.431651 -0.129794
v 0.129676 7.733533 0.129794
v 0.129676 7.733533 -0.129794
v -0.098044 7.807915 -0.129794
v -0.098044 7.807915 0.129794
v -0.098006 7.553828 -0.129794
v -0.098006 7.553828 0.129794
v -0.275075 7.807892 0.129794
v -0.275037 7.550764 0.129794
v -0.275037 7.553805 -0.129794
v -0.275074 7.807892 -0.129794
v -1.638826 7.550764 0.948013
v -1.638826 7.550764 -0.978624
v -0.274884 7.478727 0.129737
v -0.274884 7.481768 -0.129851
v -1.638673 7.478727 -0.978681
v -1.638673 7.478727 0.947957
v -0.806616 7.551474 0.129794
v -0.806616 7.551474 -0.129794
v -0.343146 7.550764 0.483183
v -0.349267 7.552190 -0.511002
v -0.349114 7.480153 -0.511059
v -0.342993 7.478727 0.483126
v -0.202702 -3.215184 -0.202702
v -0.159262 -3.215184 -0.238352
v -0.109701 -3.215184 -0.264842
v -0.055925 -3.215184 -0.281155
v 0.000000 -3.215184 -0.286663
v 0.055925 -3.215184 -0.281155
v 0.109701 -3.215184 -0.264842
v 0.159262 -3.215184 -0.238352
v 0.202702 -3.215184 -0.202702
v 0.238352 -3.215184 -0.159262
v 0.264842 -3.215184 -0.109701
v 0.281155 -3.215184 -0.055925
v 0.286663 -3.215184 0.000000
v 0.281155 -3.215184 0.055925
v 0.264842 -3.215184 0.109701
v 0.238352 -3.215184 0.159262
v 0.202701 -3.215184 0.202702
v 0.159261 -3.215184 0.238352
v 0.109701 -3.215184 0.264842
v 0.055925 -3.215184 0.281155
v -0.000000 -3.215184 0.286663
v -0.055925 -3.215184 0.281155
v -0.109701 -3.215184 0.264842
v -0.159262 -3.215184 0.238352
v -0.202702 -3.215184 0.202701
v -0.238352 -3.215184 0.159261
v -0.264842 -3.215184 0.109701
v -0.281155 -3.215184 0.055925
v -0.286663 -3.215184 -0.000000
v -0.281155 -3.215184 -0.055926
v -0.264842 -3.215184 -0.109702
v -0.238352 -3.215184 -0.159262
v -0.202702 -4.234209 -0.202701
v -0.159262 -4.234209 -0.238352
v -0.109701 -4.234209 -0.264842
v -0.055925 -4.234209 -0.281155
v -0.000000 -4.234209 -0.286663
v 0.055925 -4.234209 -0.281155
v 0.109701 -4.234209 -0.264842
v 0.159262 -4.234209 -0.238352
v 0.202701 -4.234209 -0.202701
v 0.238352 -4.234209 -0.159262
v 0.264842 -4.234209 -0.109701
v 0.281155 -4.234209 -0.055925
v 0.286663 -4.234209 0.000000
v 0.281155 -4.234209 0.055925
v 0.264842 -4.234209 0.109701
v 0.238352 -4.234209 0.159262
v 0.202701 -4.234209 0.202702
v 0.159261 -4.234209 0.238352
v 0.109701 -4.234209 0.264842
v 0.055925 -4.234209 0.281155
v -0.000000 -4.234209 0.286663
v -0.055925 -4.234209 0.281155
v -0.109702 -4.234209 0.264842
v -0.159262 -4.234209 0.238352
v -0.202702 -4.234209 0.202701
v -0.238352 -4.234209 0.159261
v -0.264842 -4.234209 0.109701
v -0.281155 -4.234209 0.055925
v -0.286663 -4.234209 -0.000000
v -0.281155 -4.234209 -0.055926
v -0.264842 -4.234209 -0.109702
v -0.238352 -4.234209 -0.159262
v -0.640124 7.550764 0.739995
v -0.978276 7.550764 0.884674
v -0.978135 7.550764 -0.915269
v -0.641522 7.551236 -0.769191
v -0.641369 7.479199 -0.769248
v -0.977982 7.478727 -0.915325
v -0.978123 7.478727 0.884617
v -0.639971 7.478727 0.739939
vn 1.000000 -0.000000 0.000000
vn -1.000000 0.000000 -0.000000
vn -0.000000 -0.000000 -1.000000
vn -0.000000 0.000000 1.000000
vn -0.829400 0.558700 0.000000
vn -0.853800 0.520600 -0.000000
vn -1.000000 -0.000200 -0.000000
vn 1.000000 0.000100 0.000000
vn 0.310500 0.950600 -0.000000
vn -0.557400 -0.830300 0.000000
vn 0.008700 -0.999900 -0.005900
vn 0.761800 0.647900 -0.000000
vn -1.000000 -0.000100 -0.000000
vn -0.000100 1.000000 -0.000000
vn -0.981600 -0.002200 0.191100
vn -1.000000 -0.002100 -0.000000
vn -0.662100 -0.002000 0.749400
vn -0.000700 1.000000 0.000200
vn 1.000000 0.002100 -0.000000
vn -0.434500 0.900700 -0.000000
vn -0.654100 -0.000800 -0.756400
vn -0.095500 -0.001000 0.995400
vn 0.000600 -1.000000 0.000100
vn -0.981900 -0.001900 -0.189200
vn -0.398100 -0.001600 0.917300
vn -0.095500 0.000600 -0.995400
vn 0.000000 -1.000000 -0.000000
vn 0.000000 1.000000 -0.000000
vn -0.881900 0.000000 -0.471400
vn -0.773000 0.000000 -0.634400
vn -0.956900 0.000000 -0.290300
vn -0.995200 0.000000 -0.098000
vn -0.995200 0.000000 0.098000
vn -0.956900 0.000000 0.290300
vn -0.881900 0.000000 0.471400
vn -0.773000 0.000000 0.634400
vn -0.634400 0.000000 0.773000
vn -0.471400 0.000000 0.881900
vn -0.290300 0.000000 0.956900
vn -0.098000 0.000000 0.995200
vn 0.098000 0.000000 0.995200
vn 0.290300 0.000000 0.956900
vn 0.471400 0.000000 0.881900
vn 0.634400 0.000000 0.773000
vn 0.773000 0.000000 0.634400
vn 0.881900 0.000000 0.471400
vn 0.956900 0.000000 0.290300
vn 0.995200 0.000000 0.098000
vn 0.995200 0.000000 -0.098000
vn 0.956900 0.000000 -0.290300
vn 0.881900 0.000000 -0.471400
vn 0.773000 0.000000 -0.634400
vn 0.634400 0.000000 -0.773000
vn 0.471400 0.000000 -0.881900
vn 0.290300 0.000000 -0.956900
vn 0.098000 0.000000 -0.995200
vn -0.098000 0.000000 -0.995200
vn -0.290300 0.000000 -0.956900
vn -0.471400 0.000000 -0.881900
vn -0.634400 0.000000 -0.773000
vn -0.393400 -0.000100 -0.919400
usemtl Metal
s off
f 81//1 73//1 161//1 164//1
f 65//2 89//2 163//2 162//2
f 73//3 65//3 162//3 161//3
f 89//4 81//4 164//4 163//4
f 161//3 162//3 166//3
f 163//4 164//4 165//4
f 162//5 163//5 165//5 166//5
f 161//6 164//6 168//6 167//6
f 165//4 164//4 168//4
f 161//3 166//3 167//3
f 166//7 165//7 169//7 170//7
f 169//4 171//4 173//4
f 167//3 166//3 170//3 172//3
f 168//8 167//8 172//8 171//8
f 165//4 168//4 171//4 169//4
f 173//9 174//9 175//9 176//9
f 174//3 170//3 177//3 175//3
f 169//4 173//4 176//4 178//4
f 170//10 169//10 178//10 177//10
f 177//11 178//11 180//11 181//11
f 172//3 170//3 174//3
f 171//12 172//12 174//12 173//12
f 181//13 180//13 179//13 182//13
f 175//3 177//3 181//3 182//3
f 176//14 175//14 182//14 179//14
f 178//4 176//4 179//4 180//4
f 181//15 192//15 193//15 186//15
f 180//16 181//16 186//16 185//16
f 193//17 192//17 262//17 263//17
f 185//18 186//18 193//18 263//18 264//18 187//18 188//18 265//18 266//18 194//18
f 184//19 183//19 188//19 187//19
f 179//20 182//20 190//20 189//20
f 180//4 179//4 189//4
f 182//3 181//3 190//3
f 266//21 259//21 191//21 194//21
f 261//22 184//22 187//22 264//22
f 180//23 191//23 259//23 260//23 183//23 184//23 261//23 262//23 192//23 181//23 190//23 189//23
f 191//24 180//24 185//24 194//24
f 261//25 264//25 263//25 262//25
f 183//26 260//26 265//26 188//26
usemtl Wood
f 63//27 62//27 126//27 127//27
f 50//27 49//27 113//27 114//27
f 37//27 36//27 100//27 101//27
f 33//27 64//27 128//27 97//27
f 51//27 50//27 114//27 115//27
f 38//27 37//27 101//27 102//27
f 64//27 63//27 127//27 128//27
f 52//27 51//27 115//27 116//27
f 39//27 38//27 102//27 103//27
f 53//27 52//27 116//27 117//27
f 40//27 39//27 103//27 104//27
f 54//27 53//27 117//27 118//27
f 41//27 40//27 104//27 105//27
f 55//27 54//27 118//27 119//27
f 42//27 41//27 105//27 106//27
f 56//27 55//27 119//27 120//27
f 43//27 42//27 106//27 107//27
f 57//27 56//27 120//27 121//27
f 44//27 43//27 107//27 108//27
f 58//27 57//27 121//27 122//27
f 45//27 44//27 108//27 109//27
f 59//27 58//27 122//27 123//27
f 46//27 45//27 109//27 110//27
f 60//27 59//27 123//27 124//27
f 47//27 46//27 110//27 111//27
f 34//27 33//27 97//27 98//27
f 61//27 60//27 124//27 125//27
f 48//27 47//27 111//27 112//27
f 35//27 34//27 98//27 99//27
f 62//27 61//27 125//27 126//27
f 49//27 48//27 112//27 113//27
f 36//27 35//27 99//27 100//27
f 20//28 21//28 215//28 214//28
f 31//29 63//29 64//29 32//29
f 32//30 64//30 33//30 1//30
f 30//31 62//31 63//31 31//31
f 29//32 61//32 62//32 30//32
f 28//33 60//33 61//33 29//33
f 27//34 59//34 60//34 28//34
f 26//35 58//35 59//35 27//35
f 25//36 57//36 58//36 26//36
f 24//37 56//37 57//37 25//37
f 23//38 55//38 56//38 24//38
f 22//39 54//39 55//39 23//39
f 21//40 53//40 54//40 22//40
f 20//41 52//41 53//41 21//41
f 19//42 51//42 52//42 20//42
f 18//43 50//43 51//43 19//43
f 17//44 49//44 50//44 18//44
f 16//45 48//45 49//45 17//45
f 15//46 47//46 48//46 16//46
f 14//47 46//47 47//47 15//47
f 13//48 45//48 46//48 14//48
f 12//49 44//49 45//49 13//49
f 11//50 43//50 44//50 12//50
f 10//51 42//51 43//51 11//51
f 9//52 41//52 42//52 10//52
f 8//53 40//53 41//53 9//53
f 7//54 39//54 40//54 8//54
f 6//55 38//55 39//55 7//55
f 5//56 37//56 38//56 6//56
f 4//57 36//57 37//57 5//57
f 3//58 35//58 36//58 4//58
f 2//59 34//59 35//59 3//59
f 1//60 33//60 34//60 2//60
f 97//60 130//60 129//60 98//60
f 98//59 129//59 131//59 99//59
f 99//58 131//58 132//58 100//58
f 100//57 132//57 133//57 101//57
f 101//56 133//56 134//56 102//56
f 102//55 134//55 135//55 103//55
f 103//54 135//54 136//54 104//54
f 104//53 136//53 137//53 105//53
f 105//52 137//52 138//52 106//52
f 106//51 138//51 139//51 107//51
f 107//50 139//50 140//50 108//50
f 108//49 140//49 141//49 109//49
f 109//48 141//48 142//48 110//48
f 110//47 142//47 143//47 111//47
f 111//46 143//46 144//46 112//46
f 112//45 144//45 145//45 113//45
f 113//44 145//44 146//44 114//44
f 114//43 146//43 147//43 115//43
f 115//42 147//42 148//42 116//42
f 116//41 148//41 149//41 117//41
f 117//40 149//40 150//40 118//40
f 118//39 150//39 151//39 119//39
f 119//38 151//38 152//38 120//38
f 120//37 152//37 153//37 121//37
f 121//36 153//36 154//36 122//36
f 122//35 154//35 155//35 123//35
f 123//34 155//34 156//34 124//34
f 124//33 156//33 157//33 125//33
f 125//32 157//32 158//32 126//32
f 126//31 158//31 159//31 127//31
f 89//28 88//28 87//28 86//28 85//28 84//28 83//28 82//28 81//28
f 128//30 160//30 130//30 97//30
f 127//29 159//29 160//29 128//29
f 65//28 66//28 129//28 130//28
f 66//28 67//28 131//28 129//28
f 67//28 68//28 132//28 131//28
f 68//28 69//28 133//28 132//28
f 69//28 70//28 134//28 133//28
f 70//28 71//28 135//28 134//28
f 71//28 72//28 136//28 135//28
f 72//28 73//28 137//28 136//28
f 73//28 74//28 138//28 137//28
f 74//28 75//28 139//28 138//28
f 75//28 76//28 140//28 139//28
f 76//28 77//28 141//28 140//28
f 77//28 78//28 142//28 141//28
f 78//28 79//28 143//28 142//28
f 79//28 80//28 144//28 143//28
f 80//28 81//28 145//28 144//28
f 81//28 82//28 146//28 145//28
f 82//28 83//28 147//28 146//28
f 83//28 84//28 148//28 147//28
f 84//28 85//28 149//28 148//28
f 85//28 86//28 150//28 149//28
f 86//28 87//28 151//28 150//28
f 87//28 88//28 152//28 151//28
f 88//28 89//28 153//28 152//28
f 89//28 90//28 154//28 153//28
f 90//28 91//28 155//28 154//28
f 91//28 92//28 156//28 155//28
f 92//28 93//28 157//28 156//28
f 93//28 94//28 158//28 157//28
f 94//28 95//28 159//28 158//28
f 95//28 96//28 160//28 159//28
f 96//28 65//28 130//28 160//28
f 74//28 73//28 81//28 80//28 79//28 78//28 77//28 76//28 75//28
f 65//28 96//28 95//28 94//28 93//28 92//28 91//28 90//28 89//28
f 66//28 65//28 73//28 72//28 71//28 70//28 69//28 68//28 67//28
f 201//54 202//54 234//54 233//54
f 27//28 28//28 222//28 221//28
f 7//28 8//28 202//28 201//28
f 14//28 15//28 209//28 208//28
f 21//28 22//28 216//28 215//28
f 1//28 2//28 196//28 195//28
f 28//28 29//28 223//28 222//28
f 8//28 9//28 203//28 202//28
f 15//28 16//28 210//28 209//28
f 22//28 23//28 217//28 216//28
f 2//28 3//28 197//28 196//28
f 29//28 30//28 224//28 223//28
f 9//28 10//28 204//28 203//28
f 16//28 17//28 211//28 210//28
f 23//28 24//28 218//28 217//28
f 3//28 4//28 198//28 197//28
f 30//28 31//28 225//28 224//28
f 10//28 11//28 205//28 204//28
f 17//28 18//28 212//28 211//28
f 24//28 25//28 219//28 218//28
f 4//28 5//28 199//28 198//28
f 31//28 32//28 226//28 225//28
f 11//28 12//28 206//28 205//28
f 18//28 19//28 213//28 212//28
f 25//28 26//28 220//28 219//28
f 5//28 6//28 200//28 199//28
f 32//28 1//28 195//28 226//28
f 12//28 13//28 207//28 206//28
f 19//28 20//28 214//28 213//28
f 26//28 27//28 221//28 220//28
f 6//28 7//28 201//28 200//28
f 13//28 14//28 208//28 207//28
f 227//27 228//27 229//27 230//27 231//27 232//27 233//27 234//27 235//27 236//27 237//27 238//27 239//27 240//27 241//27 242//27 243//27 244//27 245//27 246//27 247//27 248//27 249//27 250//27 251//27 252//27 253//27 254//27 255//27 256//27 257//27 258//27
f 215//40 216//40 248//40 247//40
f 202//53 203//53 235//53 234//53
f 216//39 217//39 249//39 248//39
f 203//52 204//52 236//52 235//52
f 217//38 218//38 250//38 249//38
f 204//51 205//51 237//51 236//51
f 218//37 219//37 251//37 250//37
f 205//50 206//50 238//50 237//50
f 219//36 220//36 252//36 251//36
f 206//49 207//49 239//49 238//49
f 220//35 221//35 253//35 252//35
f 207//48 208//48 240//48 239//48
f 221//34 222//34 254//34 253//34
f 208//47 209//47 241//47 240//47
f 195//60 196//60 228//60 227//60
f 222//33 223//33 255//33 254//33
f 209//46 210//46 242//46 241//46
f 196//59 197//59 229//59 228//59
f 223//32 224//32 256//32 255//32
f 210//45 211//45 243//45 242//45
f 197//58 198//58 230//58 229//58
f 224//31 225//31 257//31 256//31
f 211//44 212//44 244//44 243//44
f 198//57 199//57 231//57 230//57
f 225//29 226//29 258//29 257//29
f 212//43 213//43 245//43 244//43
f 199//56 200//56 232//56 231//56
f 226//30 195//30 227//30 258//30
f 213//42 214//42 246//42 245//42
f 200//55 201//55 233//55 232//55
f 214//41 215//41 247//41 246//41
f 265//61 260//61 259//61 266//61
