# Blender v2.76 (sub 0) OBJ File: 'Hoe.blend'
# www.blender.org
mtllib Hoe.mtl
o Cylinder
v -0.174584 -3.215184 -0.174584
v -0.137170 -3.215184 -0.205289
v -0.094484 -3.215184 -0.228105
v -0.048168 -3.215184 -0.242155
v 0.000000 -3.215184 -0.246899
v 0.048168 -3.215184 -0.242155
v 0.094484 -3.215184 -0.228105
v 0.137170 -3.215184 -0.205289
v 0.174584 -3.215184 -0.174584
v 0.205289 -3.215184 -0.137170
v 0.228105 -3.215184 -0.094484
v 0.242155 -3.215184 -0.048168
v 0.246899 -3.215184 0.000000
v 0.242155 -3.215184 0.048168
v 0.228105 -3.215184 0.094484
v 0.205289 -3.215184 0.137170
v 0.174584 -3.215184 0.174584
v 0.137170 -3.215184 0.205289
v 0.094484 -3.215184 0.228105
v 0.048167 -3.215184 0.242155
v -0.000000 -3.215184 0.246899
v -0.048168 -3.215184 0.242155
v -0.094484 -3.215184 0.228105
v -0.137170 -3.215184 0.205289
v -0.174584 -3.215184 0.174584
v -0.205289 -3.215184 0.137169
v -0.228105 -3.215184 0.094484
v -0.242155 -3.215184 0.048167
v -0.246899 -3.215184 -0.000000
v -0.242155 -3.215184 -0.048168
v -0.228105 -3.215184 -0.094484
v -0.205289 -3.215184 -0.137170
v -0.174584 4.886401 -0.174584
v -0.137170 4.886401 -0.205289
v -0.094484 4.886401 -0.228105
v -0.048168 4.886401 -0.242155
v 0.000000 4.886401 -0.246899
v 0.048168 4.886401 -0.242155
v 0.094484 4.886401 -0.228105
v 0.137170 4.886401 -0.205289
v 0.174584 4.886401 -0.174584
v 0.205289 4.886401 -0.137170
v 0.228105 4.886401 -0.094484
v 0.242155 4.886401 -0.048168
v 0.246899 4.886401 0.000000
v 0.242155 4.886401 0.048168
v 0.228105 4.886401 0.094484
v 0.205289 4.886401 0.137170
v 0.174584 4.886401 0.174584
v 0.137170 4.886401 0.205289
v 0.094484 4.886401 0.228105
v 0.048167 4.886401 0.242155
v -0.000000 4.886401 0.246899
v -0.048168 4.886401 0.242155
v -0.094484 4.886401 0.228105
v -0.137170 4.886401 0.205289
v -0.174584 4.886401 0.174584
v -0.205289 4.886401 0.137169
v -0.228105 4.886401 0.094484
v -0.242155 4.886401 0.048167
v -0.246899 4.886401 -0.000000
v -0.242155 4.886401 -0.048168
v -0.228105 4.886401 -0.094484
v -0.205289 4.886401 -0.137170
v -0.129794 6.230695 -0.129794
v -0.101978 6.230695 -0.152621
v -0.070244 6.230695 -0.169584
v -0.035810 6.230695 -0.180029
v 0.000000 6.230695 -0.183556
v 0.035810 6.230695 -0.180029
v 0.070244 6.230695 -0.169584
v 0.101978 6.230695 -0.152621
v 0.129794 6.230695 -0.129794
v 0.152621 6.230695 -0.101978
v 0.169584 6.230695 -0.070244
v 0.180029 6.230695 -0.035810
v 0.183556 6.230695 0.000000
v 0.180029 6.230695 0.035810
v 0.169584 6.230695 0.070244
v 0.152621 6.230695 0.101978
v 0.129794 6.230695 0.129794
v 0.101978 6.230695 0.152622
v 0.070244 6.230695 0.169584
v 0.035810 6.230695 0.180029
v -0.000000 6.230695 0.183556
v -0.035810 6.230695 0.180029
v -0.070244 6.230695 0.169584
v -0.101979 6.230695 0.152621
v -0.129794 6.230695 0.129794
v -0.152622 6.230695 0.101978
v -0.169584 6.230695 0.070244
v -0.180029 6.230695 0.035810
v -0.183556 6.230695 -0.000000
v -0.180029 6.230695 -0.035810
v -0.169584 6.230695 -0.070244
v -0.152621 6.230695 -0.101979
v -0.203606 4.886401 -0.203606
v -0.159972 4.886401 -0.239415
v -0.110191 4.886401 -0.266024
v -0.056175 4.886401 -0.282409
v 0.000000 4.886401 -0.287942
v 0.056175 4.886401 -0.282409
v 0.110191 4.886401 -0.266024
v 0.159972 4.886401 -0.239415
v 0.203606 4.886401 -0.203606
v 0.239415 4.886401 -0.159972
v 0.266024 4.886401 -0.110191
v 0.282409 4.886401 -0.056175
v 0.287942 4.886401 0.000000
v 0.282409 4.886401 0.056175
v 0.266024 4.886401 0.110191
v 0.239415 4.886401 0.159972
v 0.203606 4.886401 0.203606
v 0.159972 4.886401 0.239415
v 0.110191 4.886401 0.266024
v 0.056175 4.886401 0.282409
v -0.000000 4.886401 0.287942
v -0.056175 4.886401 0.282409
v -0.110191 4.886401 0.266024
v -0.159972 4.886401 0.239415
v -0.203606 4.886401 0.203606
v -0.239415 4.886401 0.159972
v -0.266024 4.886401 0.110190
v -0.282410 4.886401 0.056174
v -0.287942 4.886401 -0.000000
v -0.282409 4.886401 -0.056175
v -0.266024 4.886401 -0.110191
v -0.239415 4.886401 -0.159972
v -0.159972 6.230695 -0.239415
v -0.203606 6.230695 -0.203606
v -0.110191 6.230695 -0.266024
v -0.056175 6.230695 -0.282409
v 0.000000 6.230695 -0.287942
v 0.056175 6.230695 -0.282409
v 0.110191 6.230695 -0.266024
v 0.159972 6.230695 -0.239415
v 0.203606 6.230695 -0.203606
v 0.239415 6.230695 -0.159972
v 0.266024 6.230695 -0.110191
v 0.282409 6.230695 -0.056175
v 0.287942 6.230695 0.000000
v 0.282409 6.230695 0.056175
v 0.266024 6.230695 0.110191
v 0.239415 6.230695 0.159972
v 0.203606 6.230695 0.203606
v 0.159972 6.230695 0.239415
v 0.110191 6.230695 0.266024
v 0.056175 6.230695 0.282409
v -0.000000 6.230695 0.287942
v -0.056175 6.230695 0.282409
v -0.110191 6.230695 0.266024
v -0.159972 6.230695 0.239415
v -0.203606 6.230695 0.203606
v -0.239415 6.230695 0.159972
v -0.266024 6.230695 0.110190
v -0.282410 6.230695 0.056174
v -0.287942 6.230695 -0.000000
v -0.282409 6.230695 -0.056175
v -0.266024 6.230695 -0.110191
v -0.239415 6.230695 -0.159972
v 0.129794 6.382151 -0.129794
v -0.129794 6.492063 -0.129794
v -0.129794 6.492063 0.129794
v 0.129794 6.382151 0.129794
v 0.129794 6.877431 0.129794
v 0.129794 6.877431 -0.129794
v 0.386501 6.803107 -0.129794
v 0.386501 6.803107 0.129794
v 0.129714 7.400960 0.129794
v 0.129714 7.400960 -0.129794
v 0.386421 7.431651 0.129794
v 0.386421 7.431651 -0.129794
v 0.129676 7.733533 0.129794
v 0.129676 7.733533 -0.129794
v -0.098044 7.807915 -0.129794
v -0.098044 7.807915 0.129794
v -0.098006 7.553828 -0.129794
v -0.098006 7.553828 0.129794
v -0.275075 7.807892 0.129794
v -0.275037 7.550764 0.129794
v -0.275037 7.553805 -0.129794
v -0.275074 7.807892 -0.129794
v -1.638826 7.550764 0.948013
v -1.638826 7.550764 -0.978624
v -0.274884 7.478727 0.129737
v -0.274884 7.481768 -0.129851
v -1.638673 7.478727 -0.978681
v -1.638673 7.478727 0.947957
v -0.806616 7.551474 0.129794
v -0.806616 7.551474 -0.129794
v -0.343146 7.550764 0.483183
v -0.349267 7.552190 -0.511002
v -0.349114 7.480153 -0.511059
v -0.342993 7.478727 0.483126
v -0.202702 -3.215184 -0.202702
v -0.159262 -3.215184 -0.238352
v -0.109701 -3.215184 -0.264842
v -0.055925 -3.215184 -0.281155
v 0.000000 -3.215184 -0.286663
v 0.055925 -3.215184 -0.281155
v 0.109701 -3.215184 -0.264842
v 0.159262 -3.215184 -0.238352
v 0.202702 -3.215184 -0.202702
v 0.238352 -3.215184 -0.159262
v 0.264842 -3.215184 -0.109701
v 0.281155 -3.215184 -0.055925
v 0.286663 -3.215184 0.000000
v 0.281155 -3.215184 0.055925
v 0.264842 -3.215184 0.109701
v 0.238352 -3.215184 0.159262
v 0.202701 -3.215184 0.202702
v 0.159261 -3.215184 0.238352
v 0.109701 -3.215184 0.264842
v 0.055925 -3.215184 0.281155
v -0.000000 -3.215184 0.286663
v -0.055925 -3.215184 0.281155
v -0.109701 -3.215184 0.264842
v -0.159262 -3.215184 0.238352
v -0.202702 -3.215184 0.202701
v -0.238352 -3.215184 0.159261
v -0.264842 -3.215184 0.109701
v -0.281155 -3.215184 0.055925
v -0.286663 -3.215184 -0.000000
v -0.281155 -3.215184 -0.055926
v -0.264842 -3.215184 -0.109702
v -0.238352 -3.215184 -0.159262
v -0.202702 -4.234209 -0.202701
v -0.159262 -4.234209 -0.238352
v -0.109701 -4.234209 -0.264842
v -0.055925 -4.234209 -0.281155
v -0.000000 -4.234209 -0.286663
v 0.055925 -4.234209 -0.281155
v 0.109701 -4.234209 -0.264842
v 0.159262 -4.234209 -0.238352
v 0.202701 -4.234209 -0.202701
v 0.238352 -4.234209 -0.159262
v 0.264842 -4.234209 -0.109701
v 0.281155 -4.234209 -0.055925
v 0.286663 -4.234209 0.000000
v 0.281155 -4.234209 0.055925
v 0.264842 -4.234209 0.109701
v 0.238352 -4.234209 0.159262
v 0.202701 -4.234209 0.202702
v 0.159261 -4.234209 0.238352
v 0.109701 -4.234209 0.264842
v 0.055925 -4.234209 0.281155
v -0.000000 -4.234209 0.286663
v -0.055925 -4.234209 0.281155
v -0.109702 -4.234209 0.264842
v -0.159262 -4.234209 0.238352
v -0.202702 -4.234209 0.202701
v -0.238352 -4.234209 0.159261
v -0.264842 -4.234209 0.109701
v -0.281155 -4.234209 0.055925
v -0.286663 -4.234209 -0.000000
v -0.281155 -4.234209 -0.055926
v -0.264842 -4.234209 -0.109702
v -0.238352 -4.234209 -0.159262
v -0.640124 7.550764 0.739995
v -0.978276 7.550764 0.884674
v -0.978135 7.550764 -0.915269
v -0.641522 7.551236 -0.769191
v -0.641369 7.479199 -0.769248
v -0.977982 7.478727 -0.915325
v -0.978123 7.478727 0.884617
v -0.639971 7.478727 0.739939
vn 0.000000 -1.000000 -0.000000
vn 0.000000 1.000000 -0.000000
vn -0.881900 0.000000 -0.471400
vn -0.773000 0.000000 -0.634400
vn -0.956900 0.000000 -0.290300
vn -0.995200 0.000000 -0.098000
vn -0.995200 0.000000 0.098000
vn -0.956900 0.000000 0.290300
vn -0.881900 0.000000 0.471400
vn -0.773000 0.000000 0.634400
vn -0.634400 0.000000 0.773000
vn -0.471400 0.000000 0.881900
vn -0.290300 0.000000 0.956900
vn -0.098000 0.000000 0.995200
vn 0.098000 0.000000 0.995200
vn 0.290300 0.000000 0.956900
vn 0.471400 0.000000 0.881900
vn 0.634400 0.000000 0.773000
vn 0.773000 0.000000 0.634400
vn 0.881900 0.000000 0.471400
vn 0.956900 0.000000 0.290300
vn 0.995200 0.000000 0.098000
vn 0.995200 0.000000 -0.098000
vn 0.956900 0.000000 -0.290300
vn 0.881900 0.000000 -0.471400
vn 0.773000 0.000000 -0.634400
vn 0.634400 0.000000 -0.773000
vn 0.471400 0.000000 -0.881900
vn 0.290300 0.000000 -0.956900
vn 0.098000 0.000000 -0.995200
vn -0.098000 0.000000 -0.995200
vn -0.290300 0.000000 -0.956900
vn -0.471400 0.000000 -0.881900
vn -0.634400 0.000000 -0.773000
vn 1.000000 -0.000000 0.000000
vn -1.000000 0.000000 -0.000000
vn -0.000000 -0.000000 -1.000000
vn -0.000000 0.000000 1.000000
vn -0.829400 0.558700 0.000000
vn -0.853800 0.520600 -0.000000
vn -1.000000 -0.000200 -0.000000
vn 1.000000 0.000100 0.000000
vn 0.310500 0.950600 -0.000000
vn -0.557400 -0.830300 0.000000
vn 0.008700 -0.999900 -0.005900
vn 0.761800 0.647900 -0.000000
vn -1.000000 -0.000100 -0.000000
vn -0.000100 1.000000 -0.000000
vn -0.981600 -0.002200 0.191100
vn -1.000000 -0.002100 -0.000000
vn -0.662100 -0.002000 0.749400
vn -0.000700 1.000000 0.000200
vn 1.000000 0.002100 -0.000000
vn -0.434500 0.900700 -0.000000
vn -0.654100 -0.000800 -0.756400
vn -0.095500 -0.001000 0.995400
vn 0.000600 -1.000000 0.000100
vn -0.981900 -0.001900 -0.189200
vn -0.398100 -0.001600 0.917300
vn -0.393400 -0.000100 -0.919400
vn -0.095500 0.000600 -0.995400
usemtl None
s off
f 63//1 62//1 126//1 127//1
f 50//1 49//1 113//1 114//1
f 37//1 36//1 100//1 101//1
f 33//1 64//1 128//1 97//1
f 51//1 50//1 114//1 115//1
f 38//1 37//1 101//1 102//1
f 64//1 63//1 127//1 128//1
f 52//1 51//1 115//1 116//1
f 39//1 38//1 102//1 103//1
f 53//1 52//1 116//1 117//1
f 40//1 39//1 103//1 104//1
f 54//1 53//1 117//1 118//1
f 41//1 40//1 104//1 105//1
f 55//1 54//1 118//1 119//1
f 42//1 41//1 105//1 106//1
f 56//1 55//1 119//1 120//1
f 43//1 42//1 106//1 107//1
f 57//1 56//1 120//1 121//1
f 44//1 43//1 107//1 108//1
f 58//1 57//1 121//1 122//1
f 45//1 44//1 108//1 109//1
f 59//1 58//1 122//1 123//1
f 46//1 45//1 109//1 110//1
f 60//1 59//1 123//1 124//1
f 47//1 46//1 110//1 111//1
f 34//1 33//1 97//1 98//1
f 61//1 60//1 124//1 125//1
f 48//1 47//1 111//1 112//1
f 35//1 34//1 98//1 99//1
f 62//1 61//1 125//1 126//1
f 49//1 48//1 112//1 113//1
f 36//1 35//1 99//1 100//1
f 20//2 21//2 215//2 214//2
f 31//3 63//3 64//3 32//3
f 32//4 64//4 33//4 1//4
f 30//5 62//5 63//5 31//5
f 29//6 61//6 62//6 30//6
f 28//7 60//7 61//7 29//7
f 27//8 59//8 60//8 28//8
f 26//9 58//9 59//9 27//9
f 25//10 57//10 58//10 26//10
f 24//11 56//11 57//11 25//11
f 23//12 55//12 56//12 24//12
f 22//13 54//13 55//13 23//13
f 21//14 53//14 54//14 22//14
f 20//15 52//15 53//15 21//15
f 19//16 51//16 52//16 20//16
f 18//17 50//17 51//17 19//17
f 17//18 49//18 50//18 18//18
f 16//19 48//19 49//19 17//19
f 15//20 47//20 48//20 16//20
f 14//21 46//21 47//21 15//21
f 13//22 45//22 46//22 14//22
f 12//23 44//23 45//23 13//23
f 11//24 43//24 44//24 12//24
f 10//25 42//25 43//25 11//25
f 9//26 41//26 42//26 10//26
f 8//27 40//27 41//27 9//27
f 7//28 39//28 40//28 8//28
f 6//29 38//29 39//29 7//29
f 5//30 37//30 38//30 6//30
f 4//31 36//31 37//31 5//31
f 3//32 35//32 36//32 4//32
f 2//33 34//33 35//33 3//33
f 1//34 33//34 34//34 2//34
f 97//34 130//34 129//34 98//34
f 98//33 129//33 131//33 99//33
f 99//32 131//32 132//32 100//32
f 100//31 132//31 133//31 101//31
f 101//30 133//30 134//30 102//30
f 102//29 134//29 135//29 103//29
f 103//28 135//28 136//28 104//28
f 104//27 136//27 137//27 105//27
f 105//26 137//26 138//26 106//26
f 106//25 138//25 139//25 107//25
f 107//24 139//24 140//24 108//24
f 108//23 140//23 141//23 109//23
f 109//22 141//22 142//22 110//22
f 110//21 142//21 143//21 111//21
f 111//20 143//20 144//20 112//20
f 112//19 144//19 145//19 113//19
f 113//18 145//18 146//18 114//18
f 114//17 146//17 147//17 115//17
f 115//16 147//16 148//16 116//16
f 116//15 148//15 149//15 117//15
f 117//14 149//14 150//14 118//14
f 118//13 150//13 151//13 119//13
f 119//12 151//12 152//12 120//12
f 120//11 152//11 153//11 121//11
f 121//10 153//10 154//10 122//10
f 122//9 154//9 155//9 123//9
f 123//8 155//8 156//8 124//8
f 124//7 156//7 157//7 125//7
f 125//6 157//6 158//6 126//6
f 126//5 158//5 159//5 127//5
f 89//2 88//2 87//2 86//2 85//2 84//2 83//2 82//2 81//2
f 128//4 160//4 130//4 97//4
f 127//3 159//3 160//3 128//3
f 65//2 66//2 129//2 130//2
f 66//2 67//2 131//2 129//2
f 67//2 68//2 132//2 131//2
f 68//2 69//2 133//2 132//2
f 69//2 70//2 134//2 133//2
f 70//2 71//2 135//2 134//2
f 71//2 72//2 136//2 135//2
f 72//2 73//2 137//2 136//2
f 73//2 74//2 138//2 137//2
f 74//2 75//2 139//2 138//2
f 75//2 76//2 140//2 139//2
f 76//2 77//2 141//2 140//2
f 77//2 78//2 142//2 141//2
f 78//2 79//2 143//2 142//2
f 79//2 80//2 144//2 143//2
f 80//2 81//2 145//2 144//2
f 81//2 82//2 146//2 145//2
f 82//2 83//2 147//2 146//2
f 83//2 84//2 148//2 147//2
f 84//2 85//2 149//2 148//2
f 85//2 86//2 150//2 149//2
f 86//2 87//2 151//2 150//2
f 87//2 88//2 152//2 151//2
f 88//2 89//2 153//2 152//2
f 89//2 90//2 154//2 153//2
f 90//2 91//2 155//2 154//2
f 91//2 92//2 156//2 155//2
f 92//2 93//2 157//2 156//2
f 93//2 94//2 158//2 157//2
f 94//2 95//2 159//2 158//2
f 95//2 96//2 160//2 159//2
f 96//2 65//2 130//2 160//2
f 74//2 73//2 81//2 80//2 79//2 78//2 77//2 76//2 75//2
f 65//2 96//2 95//2 94//2 93//2 92//2 91//2 90//2 89//2
f 66//2 65//2 73//2 72//2 71//2 70//2 69//2 68//2 67//2
f 81//35 73//35 161//35 164//35
f 65//36 89//36 163//36 162//36
f 73//37 65//37 162//37 161//37
f 89//38 81//38 164//38 163//38
f 161//37 162//37 166//37
f 163//38 164//38 165//38
f 162//39 163//39 165//39 166//39
f 161//40 164//40 168//40 167//40
f 165//38 164//38 168//38
f 161//37 166//37 167//37
f 166//41 165//41 169//41 170//41
f 169//38 171//38 173//38
f 167//37 166//37 170//37 172//37
f 168//42 167//42 172//42 171//42
f 165//38 168//38 171//38 169//38
f 173//43 174//43 175//43 176//43
f 174//37 170//37 177//37 175//37
f 169//38 173//38 176//38 178//38
f 170//44 169//44 178//44 177//44
f 177//45 178//45 180//45 181//45
f 172//37 170//37 174//37
f 171//46 172//46 174//46 173//46
f 181//47 180//47 179//47 182//47
f 175//37 177//37 181//37 182//37
f 176//48 175//48 182//48 179//48
f 178//38 176//38 179//38 180//38
f 181//49 192//49 193//49 186//49
f 180//50 181//50 186//50 185//50
f 193//51 192//51 262//51 263//51
f 185//52 186//52 193//52 263//52 264//52 187//52 188//52 265//52 266//52 194//52
f 184//53 183//53 188//53 187//53
f 179//54 182//54 190//54 189//54
f 180//38 179//38 189//38
f 182//37 181//37 190//37
f 266//55 259//55 191//55 194//55
f 261//56 184//56 187//56 264//56
f 180//57 191//57 259//57 260//57 183//57 184//57 261//57 262//57 192//57 181//57 190//57 189//57
f 191//58 180//58 185//58 194//58
f 201//28 202//28 234//28 233//28
f 27//2 28//2 222//2 221//2
f 7//2 8//2 202//2 201//2
f 14//2 15//2 209//2 208//2
f 21//2 22//2 216//2 215//2
f 1//2 2//2 196//2 195//2
f 28//2 29//2 223//2 222//2
f 8//2 9//2 203//2 202//2
f 15//2 16//2 210//2 209//2
f 22//2 23//2 217//2 216//2
f 2//2 3//2 197//2 196//2
f 29//2 30//2 224//2 223//2
f 9//2 10//2 204//2 203//2
f 16//2 17//2 211//2 210//2
f 23//2 24//2 218//2 217//2
f 3//2 4//2 198//2 197//2
f 30//2 31//2 225//2 224//2
f 10//2 11//2 205//2 204//2
f 17//2 18//2 212//2 211//2
f 24//2 25//2 219//2 218//2
f 4//2 5//2 199//2 198//2
f 31//2 32//2 226//2 225//2
f 11//2 12//2 206//2 205//2
f 18//2 19//2 213//2 212//2
f 25//2 26//2 220//2 219//2
f 5//2 6//2 200//2 199//2
f 32//2 1//2 195//2 226//2
f 12//2 13//2 207//2 206//2
f 19//2 20//2 214//2 213//2
f 26//2 27//2 221//2 220//2
f 6//2 7//2 201//2 200//2
f 13//2 14//2 208//2 207//2
f 227//1 228//1 229//1 230//1 231//1 232//1 233//1 234//1 235//1 236//1 237//1 238//1 239//1 240//1 241//1 242//1 243//1 244//1 245//1 246//1 247//1 248//1 249//1 250//1 251//1 252//1 253//1 254//1 255//1 256//1 257//1 258//1
f 215//14 216//14 248//14 247//14
f 202//27 203//27 235//27 234//27
f 216//13 217//13 249//13 248//13
f 203//26 204//26 236//26 235//26
f 217//12 218//12 250//12 249//12
f 204//25 205//25 237//25 236//25
f 218//11 219//11 251//11 250//11
f 205//24 206//24 238//24 237//24
f 219//10 220//10 252//10 251//10
f 206//23 207//23 239//23 238//23
f 220//9 221//9 253//9 252//9
f 207//22 208//22 240//22 239//22
f 221//8 222//8 254//8 253//8
f 208//21 209//21 241//21 240//21
f 195//34 196//34 228//34 227//34
f 222//7 223//7 255//7 254//7
f 209//20 210//20 242//20 241//20
f 196//33 197//33 229//33 228//33
f 223//6 224//6 256//6 255//6
f 210//19 211//19 243//19 242//19
f 197//32 198//32 230//32 229//32
f 224//5 225//5 257//5 256//5
f 211//18 212//18 244//18 243//18
f 198//31 199//31 231//31 230//31
f 225//3 226//3 258//3 257//3
f 212//17 213//17 245//17 244//17
f 199//30 200//30 232//30 231//30
f 226//4 195//4 227//4 258//4
f 213//16 214//16 246//16 245//16
f 200//29 201//29 233//29 232//29
f 214//15 215//15 247//15 246//15
f 261//59 264//59 263//59 262//59
f 265//60 260//60 259//60 266//60
f 183//61 260//61 265//61 188//61
